<svg xmlns="http://www.w3.org/2000/svg" width="18.557" height="22.091" viewBox="0 0 18.557 22.091">
  <path id="Clapper-Icon-SVG-0prmvd" d="M2.468,20.941a1.261,1.261,0,0,1-1.259-1.259V10.316H16.9v9.366a1.26,1.26,0,0,1-1.259,1.259Zm1.34-2.729a.375.375,0,0,0,.375.374H7.641a.375.375,0,1,0,0-.75H4.183A.376.376,0,0,0,3.808,18.212Zm0-2.777a.376.376,0,0,0,.375.375h9.458a.375.375,0,0,0,0-.75H4.183A.375.375,0,0,0,3.808,15.435Zm0-2.776a.375.375,0,0,0,.375.374h9.458a.375.375,0,0,0,0-.75H4.183A.376.376,0,0,0,3.808,12.659Zm13.437-3.02H13.374l1.318-1.318h2.862V9.639Zm-9.382,0L9.18,8.321h4.552L12.414,9.639Zm-5.513,0L3.669,8.321H8.22L6.9,9.639Zm-1.479,0h-.2a.112.112,0,0,1-.113-.112V8.321H2.709L1.391,9.638ZM.008,6.421a.112.112,0,0,1,.063-.147l.665-.266,1.714.734-1.993.8Zm1.619-.769L5.854,3.959l1.713.735L3.342,6.385ZM6.746,3.6l4.226-1.691.047.021,1.667.713L8.458,4.336Zm6.782-1.335-1.666-.713L15.742,0l.491,1.225L13.575,2.288Z" transform="translate(0.502 0.65)" fill="#1a171b" stroke="rgba(0,0,0,0)" stroke-miterlimit="10" stroke-width="1"/>
</svg>
